<?xml version="1.0" encoding="UTF-8"?>
<svg version="1.1" xmlns="http://www.w3.org/2000/svg" width="996" height="804">
<path d="M0 0 C0.79921875 0.64066406 1.5984375 1.28132813 2.421875 1.94140625 C20.74622126 17.31868408 33.21711322 41.02287208 39 64 C39.26490234 65.04051514 39.52980469 66.08103027 39.80273438 67.15307617 C42.4751054 78.85580786 42.46188804 90.33526315 42.51123047 102.28149414 C42.52693903 104.91839085 42.55988805 107.55469021 42.59375 110.19140625 C42.59072876 110.98833389 42.58770752 111.78526154 42.58459473 112.6063385 C42.67677639 119.46189069 44.67921866 123.97866022 49.625 128.8125 C58.22229807 138.22858836 63.02340342 150.7977853 68.06396484 162.35961914 C71.05091298 169.19792677 74.34714165 175.84486648 77.72900391 182.49462891 C80.44152236 187.84151027 83.12726213 193.20187966 85.8125 198.5625 C86.11650726 199.16908447 86.42051453 199.77566895 86.73373413 200.40063477 C91.17291839 209.26462322 95.50019919 218.17634672 99.74536133 227.13500977 C103.55601591 235.14451163 107.51686069 243.07546867 111.5 251 C115.85704049 259.66855117 120.16448677 268.35381413 124.3125 277.125 C129.43650609 287.95457116 134.8079168 298.65564108 140.18588257 309.36050415 C145.38051812 319.70362166 150.47197263 330.08199565 155.41723633 340.54711914 C159.03485693 348.16636159 162.9281832 355.6147277 167 363 C174.23581051 353.22187768 180.90687946 343.11092368 187.53756714 332.91668701 C187.92220123 332.3254303 188.30683533 331.73417358 188.703125 331.125 C189.10250275 330.51102356 189.50188049 329.89704712 189.9133606 329.26446533 C196.0915221 319.77626313 202.33049318 310.32787812 208.5625 300.875 C209.51494598 299.43010696 209.51494598 299.43010696 210.4866333 297.95602417 C219.31827254 284.56016516 228.17498612 271.18196689 237.09716797 257.84619141 C239.24582383 254.63230508 241.39090988 251.41604761 243.53515625 248.19921875 C244.11774956 247.32541565 244.11774956 247.32541565 244.71211243 246.43395996 C246.66007713 243.51192477 248.60674705 240.58904026 250.55102539 237.66455078 C253.8474253 232.70886282 257.15215096 227.76066149 260.5234375 222.85546875 C270.07979552 208.91673555 276.8060267 196.52222815 280.29003906 179.87011719 C284.66483459 158.98941533 298.31757137 139.94568384 315.99609375 127.875 C337.87810345 114.2165284 360.46253288 109.94516115 386 115 C408.81162291 120.38839702 429.4197747 134.41598476 442.375 154.125 C455.76033219 177.66960123 459.76202657 205.93900113 452.96484375 232.22265625 C450.7211529 240.17815091 447.98997854 249.01002146 442 255 C441.68514425 260.04627541 442.35041608 263.7768882 444.15234375 268.4765625 C444.61237793 269.70149414 445.07241211 270.92642578 445.54638672 272.18847656 C445.90878448 273.13527283 445.90878448 273.13527283 446.27850342 274.10119629 C447.43481946 277.14433918 448.52802978 280.20988115 449.62890625 283.2734375 C450.10046138 284.57663087 450.57239737 285.87968647 451.04467773 287.18261719 C464.06053957 323.12401732 476.98818551 359.10144698 489.51147461 395.21777344 C490.74872226 398.78293635 491.99855082 402.3434213 493.25915527 405.90039062 C493.77042996 407.34938133 494.2770649 408.80001461 494.77990723 410.25195312 C495.55165896 412.47471241 496.34029822 414.69082165 497.1328125 416.90625 C497.36193329 417.57708618 497.59105408 418.24792236 497.82711792 418.93908691 C499.21665642 422.75866204 500.42784506 424.98027297 504 427 C505.99915067 427.82543807 508.02335855 428.5914913 510.0625 429.3125 C526.33132328 435.46778023 540.66635177 445.45358516 548.23828125 461.6484375 C557.59231097 485.39066567 551.87695033 512.00458238 542.2512207 534.7800293 C528.3012824 566.58153459 505.57677608 599.62527504 473 614 C459.69632863 618.75836761 447.16746933 617.41633388 434 613 C430.67538021 611.31694005 427.87532299 609.35590981 425 607 C423.948125 606.2575 422.89625 605.515 421.8125 604.75 C410.85885545 594.03976977 407.10843003 577.84508689 406.734375 562.9921875 C406.72547373 560.95313778 406.73103423 558.91398095 406.75 556.875 C406.75821777 555.78461426 406.76643555 554.69422852 406.77490234 553.57080078 C406.99309536 537.61455664 409.37775432 523.36513439 413.66015625 507.984375 C419.2339036 487.71671243 413.34394786 470.71395938 405.91796875 451.92050171 C404.21798679 447.61535877 402.54680926 443.29900722 400.87109375 438.984375 C400.36858597 437.69354256 400.36858597 437.69354256 399.85592651 436.37663269 C391.39678751 414.61949219 383.67432507 392.57803813 375.86132812 370.58276367 C375.38827744 369.25298744 375.38827744 369.25298744 374.90567017 367.89634705 C374.30919253 366.21937269 373.71374806 364.5420304 373.11947632 362.86427307 C371.7193598 358.86605089 371.7193598 358.86605089 370 355 C369.47535156 355.85335938 368.95070313 356.70671875 368.41015625 357.5859375 C356.02237359 377.62063522 342.91852865 397.2098837 329.80938721 416.77716064 C326.98261934 420.99655956 324.15832593 425.21760096 321.33627319 429.44015503 C320.38165232 430.86747103 319.42614454 432.29419435 318.46963501 433.72024536 C312.94181927 441.96198087 307.52138765 450.2531158 302.30978394 458.69924927 C299.61567763 463.05975185 296.77147126 467.27777429 293.796875 471.453125 C286.14326781 482.30128128 279.02601771 493.53544827 271.76055908 504.64526367 C265.20725828 514.66348031 258.59134526 524.63736934 251.93408203 534.58691406 C247.75197782 540.84310642 243.60214501 547.11921826 239.484375 553.41796875 C239.01695892 554.13253738 238.54954285 554.84710602 238.06796265 555.58332825 C235.79284111 559.06253113 233.52106556 562.54385053 231.25439453 566.02856445 C215.36355228 590.39800124 199.27802087 610.64249112 170 618 C149.18226092 621.55916184 127.29696812 616.90127759 109.70849609 605.21582031 C106.71275277 603.08395381 103.92516479 600.76473833 101.1875 598.3125 C100.69685059 597.8805835 100.20620117 597.44866699 99.70068359 597.00366211 C89.5081458 587.36458825 83.29965129 574.31234269 77.1953125 561.9140625 C76.38338684 560.28339045 75.57061338 558.65314029 74.75704956 557.02328491 C72.63158859 552.75906979 70.51849554 548.48884183 68.40783691 544.21728516 C66.71114163 540.78869813 65.00566696 537.36451814 63.29972458 533.94052505 C55.57794873 518.44174444 47.90035154 502.92511529 40.47207642 487.28311157 C36.91863876 479.80107799 33.23571727 472.39265694 29.5 465 C24.62124002 455.30613231 19.84842171 445.5700109 15.203125 435.76171875 C11.41056754 427.7861935 7.46586429 419.89017012 3.5 412 C-1.37375941 402.30355351 -6.15151372 392.57014724 -10.796875 382.76171875 C-14.8994153 374.13431783 -19.1823652 365.60028795 -23.47247314 357.06530762 C-28.15315178 347.74883477 -32.72545535 338.38880892 -37.19458008 328.96850586 C-41.33709465 320.24854021 -45.64410217 311.61499793 -50 303 C-52.20866112 306.31299168 -53.58002897 309.69646898 -55.00390625 313.38671875 C-55.30607559 314.16770432 -55.60824493 314.94868988 -55.91957092 315.75334167 C-60.09016946 326.68476313 -63.81315785 337.7771126 -67.5864563 348.85021973 C-69.90905549 355.66548118 -72.24739542 362.47535224 -74.5859375 369.28515625 C-74.8195228 369.96562389 -75.0531081 370.64609154 -75.29377174 371.34717941 C-79.47036571 383.51002941 -83.73224163 395.64099855 -88.0625 407.75 C-89.34405781 411.33452551 -90.62547494 414.91910097 -91.90625 418.50390625 C-92.22941193 419.40838501 -92.55257385 420.31286377 -92.88552856 421.24475098 C-97.33122445 433.70684676 -101.69024741 446.19950084 -106.0625 458.6875 C-112.61279993 477.39070609 -119.19304828 496.08227022 -125.8972168 514.73095703 C-128.66316624 522.42856322 -131.40376699 530.13167985 -134.05078125 537.87109375 C-140.20088592 555.79963164 -146.26742071 572.57159683 -159 587 C-159.96044749 588.20665357 -160.91909437 589.41474521 -161.875 590.625 C-162.57625 591.40875 -163.2775 592.1925 -164 593 C-164.66 593 -165.32 593 -166 593 C-166 593.66 -166 594.32 -166 595 C-184.89939288 611.45319487 -207.99544848 619.76226346 -233 619 C-263.56990266 616.57376671 -292.06336767 604.94371516 -316 586 C-316.59296875 585.56171875 -317.1859375 585.1234375 -317.796875 584.671875 C-335.33969736 571.2789676 -344.38207923 546.17149345 -347.59375 525.10546875 C-351.24472254 492.83431872 -338.5783166 463.97819481 -327.8515625 434.2746582 C-322.72163312 420.06353342 -317.6931251 405.81783597 -312.6875 391.5625 C-311.05618918 386.91789862 -309.42469398 382.27336206 -307.79296875 377.62890625 C-307.38987488 376.48151474 -306.98678101 375.33412323 -306.57147217 374.15196228 C-302.56778377 362.76082791 -298.53602603 351.37970846 -294.5 340 C-288.06937649 321.86619586 -281.6734642 303.72037641 -275.29400635 285.56851196 C-271.08261194 273.58618623 -266.86612062 261.60579306 -262.6171875 249.63671875 C-262.26384842 248.64130569 -261.91050934 247.64589264 -261.54646301 246.62031555 C-260.14124956 242.66206687 -258.73593981 238.70385243 -257.33029175 234.74575806 C-251.83072743 219.25264079 -246.43064631 203.72658062 -241.0625 188.1875 C-235.55465729 172.24723898 -229.95514859 156.35907266 -223.97851562 140.58740234 C-223.03364991 138.08897748 -222.10042323 135.58656051 -221.171875 133.08203125 C-217.20374488 122.3996722 -217.20374488 122.3996722 -215.37109375 118.8046875 C-213.23919414 113.87010154 -213.55672564 108.66507097 -213.5 103.375 C-212.66756793 72.12678061 -205.5069206 43.09501912 -186 18 C-185.23558594 17.01515625 -184.47117188 16.0303125 -183.68359375 15.015625 C-162.2175366 -11.86234842 -131.72891086 -28.54432035 -97.5859375 -32.72265625 C-60.75348799 -35.57135333 -28.10275305 -23.61537796 0 0 Z M-106.578125 85.0625 C-111.35916109 92.53630355 -111.69422913 99.19991238 -111 108 C-108.72053965 116.18000628 -102.18689845 122.84756978 -95 127 C-88.72397696 129.09200768 -81.41683851 128.93880199 -75.25 126.5 C-67.64893526 122.55461975 -62.41241766 116.6667614 -59.62109375 108.578125 C-57.58265205 100.1166689 -58.95462651 93.02486626 -63.40625 85.6796875 C-67.543298 79.76683116 -72.06468595 76.14590435 -79 74 C-89.57341402 72.35240296 -100.03661818 76.51320396 -106.578125 85.0625 Z M355.1875 196.0625 C352.28846661 199.9554877 351.58485914 203.02042132 351.65625 207.875 C352.47686336 212.94788259 356.06823383 216.13324077 359.6875 219.5 C364.37688661 221.62349582 368.06894321 221.24278667 373 220 C377.94573275 217.57209483 380.08271826 215.14638783 382 210 C383.19912622 205.68314559 383.25706746 202.90837453 381.4375 198.875 C378.86794709 194.37391242 375.95332668 190.90137439 370.82421875 189.3359375 C363.67136462 188.10973394 359.85423307 190.74428568 355.1875 196.0625 Z M472.625 491.8125 C470.49602465 495.98856703 469.20045859 499.39776584 470.62890625 504.046875 C472.79843559 508.87612022 475.44321002 512.16275341 480 515 C484.64471268 516.41759633 487.83721991 516.55902889 492.25 514.4375 C496.32830354 510.82264005 499.42283498 507.94793196 501 502.625 C501 497.27925368 499.8792168 493.3921922 496.5546875 489.16015625 C493.44431242 486.08594832 490.91037777 484.60078726 486.5 484.375 C480.44142221 484.8291353 476.57767877 487.1316962 472.625 491.8125 Z " fill="#133768" transform="translate(389,108)"/>
<path d="M0 0 C4.21639262 2.36058601 7.31936206 4.97904309 10 9 C11.03823677 16.36423757 10.02510977 22.74708883 6 29 C1.52539529 34.91718963 -2.64605435 40.12808656 -10 42 C-13.95663812 42.51641342 -17.15412721 42.36777078 -20.875 40.75 C-23.83521468 38.31217614 -24.82092237 36.2346931 -25.37109375 32.44140625 C-25.59552003 22.71186712 -23.22292967 13.59585512 -17.0625 5.875 C-12.37618656 1.06944195 -6.78141181 -1.59413785 0 0 Z " fill="#133769" transform="translate(809,732)"/>
</svg>
